<svg width="45" height="43" viewBox="0 0 45 43" fill="none" xmlns="http://www.w3.org/2000/svg">
<path d="M9.74625 42.1863H20.2537L21.0881 38.4363H25.7869L26.6213 42.1863H37.1287L38.3138 36.8557C45.1575 31.1163 47.1075 21.1244 42.4875 13.1219C42.0625 12.3907 41.6 11.6982 41.1 11.0444C41.2 10.4994 41.25 9.94254 41.25 9.37379C41.2497 7.40438 40.6293 5.48505 39.4767 3.88816C38.324 2.29128 36.6978 1.09793 34.8287 0.477446C32.9595 -0.143034 30.9425 -0.159131 29.0637 0.431439C27.1849 1.02201 25.5398 2.18925 24.3619 3.76754C21.8419 3.92504 19.2994 4.52129 16.8525 5.55629L15.1275 6.28754L16.5863 9.73942L18.3131 9.00817C19.7028 8.41818 21.1563 7.99157 22.6444 7.73692C22.5481 8.26942 22.5 8.81504 22.5 9.37379C22.5 11.3306 23.1122 13.2384 24.251 14.8297C25.3898 16.4211 26.9979 17.6162 28.8501 18.2476C30.7023 18.8789 32.7056 18.9149 34.5792 18.3505C36.4529 17.786 38.1029 16.6495 39.2981 15.1C41.0739 18.231 41.6646 21.8962 40.9624 25.4265C40.2602 28.9568 38.3119 32.1169 35.4731 34.33L34.9425 34.7444L34.1213 38.4382H29.6287L28.7962 34.6882H18.0788L17.2463 38.4382H12.7537L11.4994 32.7944L10.56 32.4344C8.565 31.6694 5.75437 30.0532 3.75 28.2532V19.6863H5.74875L9.58687 13.2925L8.33438 10.1594C9.84562 10.3544 11.5875 11.0988 13.2113 12.8857L14.4731 14.2732L17.2481 11.7494L15.9862 10.3619C12.4369 6.45817 8.1675 5.91817 5.20125 6.61004L3.07313 7.10504L5.41313 12.955L3.62625 15.9363H0V29.8413L0.553125 30.3907C2.70937 32.5357 5.79375 34.4407 8.26875 35.5413L9.74625 42.1863ZM10.3125 21.5613H14.07V17.8H10.3125V21.5613ZM31.875 14.9988C30.3832 14.9988 28.9524 14.4062 27.8975 13.3513C26.8426 12.2964 26.25 10.8656 26.25 9.37379C26.25 7.88195 26.8426 6.45121 27.8975 5.39632C28.9524 4.34143 30.3832 3.74879 31.875 3.74879C33.3668 3.74879 34.7976 4.34143 35.8525 5.39632C36.9074 6.45121 37.5 7.88195 37.5 9.37379C37.5 10.8656 36.9074 12.2964 35.8525 13.3513C34.7976 14.4062 33.3668 14.9988 31.875 14.9988Z" fill="#7DCC53"/>
</svg>
